<svg xmlns="http://www.w3.org/2000/svg" viewBox="0 0 100 100">
  <defs>
    <linearGradient id="beeGold" x1="0" y1="0" x2="100" y2="100" gradientUnits="userSpaceOnUse">
      <stop offset="0%" stopColor="#FBBF24" />
      <stop offset="50%" stopColor="#F59E0B" />
      <stop offset="100%" stopColor="#D97706" />
    </linearGradient>
  </defs>
  
  <rect width="100" height="100" rx="20" fill="#0D0E12" />
  
  <g stroke="url(#beeGold)" stroke-width="4" stroke-linecap="round" stroke-linejoin="round" fill="none">
    <!-- Tête -->
    <circle cx="50" cy="30" r="8" fill="url(#beeGold)" />
    <!-- Antennes -->
    <path d="M46 24 L40 16 M54 24 L60 16" />
    
    <!-- Corps (Abdomen rayé) -->
    <path d="M42 42 L58 42" />
    <path d="M40 52 L60 52" />
    <path d="M42 62 L58 62" />
    <path d="M40 36 Q50 90 50 85 Q50 90 60 36 Z" fill="url(#beeGold)" fill-opacity="0.2" />
    <path d="M50 85 L50 90" stroke-width="3" /> <!-- Dard -->
    
    <!-- Ailes Gauche -->
    <path d="M40 40 Q20 30 25 50 Q30 70 40 50 Z" />
    <path d="M40 40 Q25 20 15 35 Q10 50 40 45 Z" />
    
    <!-- Ailes Droite -->
    <path d="M60 40 Q80 30 75 50 Q70 70 60 50 Z" />
    <path d="M60 40 Q75 20 85 35 Q90 50 60 45 Z" />
  </g>
</svg>
